<svg width="193" height="42" viewBox="0 0 193 42" fill="none" xmlns="http://www.w3.org/2000/svg">
<path d="M21.2352 0.000488281C9.9272 0.000488281 0.756836 5.1027 0.756836 11.3967C0.756836 14.0967 2.4484 16.5734 5.26766 18.5286V4.56889H37.1656V9.10626H41.3047C39.4025 3.91094 31.143 0.000488281 21.2352 0.000488281Z" fill="#090909"/>
<path d="M37.1587 22.4766V36.5294H5.26072V31.9237H1.16504C3.06727 37.1252 11.3268 41.0357 21.2345 41.0357C32.5425 41.0357 41.7129 35.9335 41.7129 29.6395C41.7129 26.927 40.009 24.438 37.1587 22.4766Z" fill="#090909"/>
<path d="M21.2353 18.2368C16.6253 18.2368 12.3685 19.0872 8.94824 20.5148C12.3685 21.9486 16.6253 22.7928 21.2353 22.7928C25.8453 22.7928 30.102 21.9424 33.5223 20.5148C30.102 19.081 25.8453 18.2368 21.2353 18.2368Z" fill="#090909"/>
<path d="M75.1483 28.5119C76.6044 28.5119 77.7569 28.2388 78.6058 27.6988C79.4547 27.1587 79.876 26.4325 79.876 25.5263C79.876 24.9552 79.7707 24.4587 79.56 24.0428C79.3493 23.6269 78.9218 23.2483 78.2712 22.9131C77.6206 22.5779 76.623 22.2427 75.2784 21.9076C73.9648 21.5848 72.8247 21.2124 71.8581 20.7903C70.8915 20.3682 70.1356 19.8158 69.6027 19.133C69.0699 18.4502 68.7972 17.5688 68.7972 16.4826C68.7972 15.3963 69.1008 14.5025 69.7081 13.7328C70.3153 12.9632 71.158 12.3735 72.2423 11.9576C73.3266 11.548 74.5845 11.3369 76.0096 11.3369C77.5339 11.3369 78.866 11.5355 80.0061 11.939C81.14 12.3363 82.1066 12.8328 82.8998 13.4163L81.5676 15.4584C80.8488 14.9681 80.0495 14.5646 79.1882 14.248C78.3208 13.9315 77.2736 13.7763 76.0468 13.7763C74.5535 13.7763 73.4939 14.006 72.8743 14.4653C72.2485 14.9246 71.9387 15.5205 71.9387 16.2467C71.9387 16.7929 72.0936 17.2523 72.3972 17.6185C72.7008 17.9847 73.2213 18.3137 73.9587 18.6054C74.6898 18.8971 75.6998 19.2199 76.9886 19.5613C78.2278 19.8841 79.306 20.2689 80.2292 20.7282C81.1524 21.1813 81.865 21.7772 82.3855 22.5159C82.8998 23.2545 83.16 24.2104 83.16 25.3773C83.16 26.7118 82.7758 27.7981 82.0075 28.6236C81.2392 29.4554 80.2416 30.0574 79.0209 30.4299C77.8003 30.8085 76.5115 30.9947 75.1483 30.9947C73.4258 30.9947 71.9635 30.7464 70.7552 30.2499C69.547 29.7533 68.5308 29.1574 67.7129 28.4498L69.4416 26.4635C70.1852 27.0718 71.0464 27.5622 72.013 27.9408C72.9797 28.3195 74.0268 28.5057 75.1421 28.5057L75.1483 28.5119Z" fill="#090909"/>
<path d="M92.7154 22.2241C92.7774 23.6828 93.0562 24.8683 93.5643 25.7932C94.0662 26.718 94.7354 27.4008 95.5657 27.8353C96.396 28.2698 97.2944 28.487 98.2734 28.487C99.2524 28.487 100.126 28.3443 100.913 28.0588C101.7 27.7732 102.512 27.3512 103.342 26.7863L104.767 28.7726C103.875 29.4678 102.865 30.0078 101.725 30.3988C100.591 30.7899 99.4259 30.9885 98.2362 30.9885C96.396 30.9885 94.8283 30.5788 93.5271 29.7533C92.2259 28.9278 91.2407 27.7794 90.5591 26.3084C89.8776 24.8373 89.543 23.1241 89.543 21.1813C89.543 19.2385 89.8838 17.575 90.5715 16.0977C91.2593 14.6205 92.2197 13.4535 93.459 12.6094C94.6982 11.759 96.1605 11.3369 97.8397 11.3369C99.5188 11.3369 100.814 11.7093 101.973 12.4542C103.131 13.199 104.011 14.2604 104.631 15.6384C105.25 17.0164 105.56 18.6613 105.56 20.573C105.56 20.8958 105.554 21.1937 105.542 21.4793C105.529 21.7586 105.511 22.0069 105.486 22.2241H92.7154ZM97.8768 13.8135C96.4703 13.8135 95.293 14.3101 94.3512 15.297C93.4094 16.2902 92.8703 17.8233 92.734 19.8965H102.636C102.598 17.8792 102.152 16.3584 101.303 15.3405C100.448 14.3225 99.3082 13.8073 97.8768 13.8073V13.8135Z" fill="#090909"/>
<path d="M127.061 29.6346C126.411 30.0628 125.624 30.398 124.701 30.6339C123.771 30.8698 122.867 30.9939 121.974 30.9939C119.93 30.9939 118.356 30.4601 117.247 29.3987C116.138 28.3373 115.586 26.9717 115.586 25.302V14.061H111.218V11.7334H115.586V7.45669L118.616 7.09668V11.7334H125.184L124.825 14.061H118.622V25.2648C118.622 26.3138 118.901 27.1145 119.459 27.6607C120.016 28.2069 120.946 28.4862 122.247 28.4862C122.96 28.4862 123.61 28.4056 124.211 28.238C124.812 28.0704 125.37 27.8593 125.89 27.5924L127.061 29.6346Z" fill="#090909"/>
<path d="M143.245 11.7342V28.2015H148.605V30.585H134.354V28.2015H140.215V14.1115H134.533V11.728H143.245V11.7342ZM140.829 2.90771C141.504 2.90771 142.043 3.11255 142.446 3.51601C142.848 3.91947 143.053 4.41603 143.053 4.9995C143.053 5.58296 142.848 6.11677 142.446 6.53265C142.043 6.94231 141.504 7.15335 140.829 7.15335C140.19 7.15335 139.67 6.94852 139.261 6.53265C138.852 6.12298 138.647 5.60779 138.647 4.9995C138.647 4.39121 138.852 3.91947 139.261 3.51601C139.67 3.11255 140.19 2.90771 140.829 2.90771Z" fill="#090909"/>
<path d="M166.494 3.77086C167.517 3.77086 168.44 3.85775 169.27 4.03776C170.1 4.21776 170.887 4.46605 171.631 4.78882L170.658 7.02336C170.045 6.76266 169.394 6.56403 168.712 6.43369C168.025 6.30334 167.318 6.23506 166.581 6.23506C165.261 6.23506 164.264 6.48955 163.594 7.00474C162.925 7.51993 162.591 8.30822 162.591 9.36963V13.1994H169.028L168.706 15.5643H162.591V30.5854H159.561V15.5643H155.031V13.1994H159.561V9.43791C159.561 8.27098 159.864 7.25923 160.472 6.41507C161.079 5.5709 161.903 4.91296 162.95 4.45363C163.997 3.99431 165.174 3.76465 166.488 3.76465L166.494 3.77086Z" fill="#090909"/>
<path d="M192.722 11.7337L186.049 30.7088C185.603 31.9874 185.039 33.1544 184.363 34.2158C183.682 35.2772 182.802 36.1586 181.711 36.8538C180.621 37.549 179.245 37.9834 177.572 38.151L177.102 35.7551C178.415 35.5379 179.45 35.2089 180.206 34.7682C180.962 34.3275 181.563 33.7626 182.003 33.0674C182.443 32.3723 182.827 31.5467 183.168 30.5784H182.158L175.521 11.7275H178.768L184.215 28.288L189.593 11.7275H192.735L192.722 11.7337Z" fill="#090909"/>
</svg>
