<svg width="32" height="32" viewBox="0 0 32 32" fill="none" xmlns="http://www.w3.org/2000/svg">
<path d="M20.6592 13.1729C21.3383 13.1729 21.9494 13.2937 22.4932 13.5342C23.038 13.7737 23.4866 14.1542 23.8398 14.6729C24.1619 15.1302 24.3686 15.6609 24.4629 16.2637C24.5181 16.616 24.5403 17.1269 24.5312 17.791H18.8486C18.8828 18.5622 19.1522 19.1042 19.666 19.4141C19.9769 19.6069 20.3509 19.704 20.79 19.7041C21.2526 19.7041 21.6319 19.5862 21.9219 19.3516C22.0812 19.2239 22.2215 19.0477 22.3418 18.8223H24.4238C24.3685 19.2775 24.1154 19.7418 23.668 20.2129C22.9696 20.9601 21.9915 21.334 20.7344 21.334C19.6959 21.334 18.78 21.0192 17.9883 20.3877C17.1926 19.7572 16.7969 18.73 16.7969 17.3086C16.7969 15.9752 17.1547 14.952 17.8701 14.2402C18.5876 13.5304 19.5162 13.1729 20.6592 13.1729ZM12.5635 10.668C13.8498 10.6868 14.7601 11.0557 15.2969 11.7764C15.6189 12.2188 15.7803 12.7476 15.7803 13.3643C15.7803 13.9986 15.6189 14.5104 15.293 14.8965C15.1104 15.1122 14.8422 15.3102 14.4883 15.4883C15.026 15.6823 15.4311 15.9886 15.707 16.4072C15.9799 16.8249 16.1172 17.3338 16.1172 17.9316C16.1172 18.5484 15.9606 19.1018 15.6465 19.5908C15.4478 19.9145 15.1994 20.1884 14.9004 20.4102C14.5643 20.6645 14.1675 20.8376 13.709 20.9326C13.2505 21.0266 12.7545 21.0723 12.2188 21.0723H7.4668V10.668H12.5635ZM9.56934 16.4912V19.2666H12.1299C12.5874 19.2666 12.9444 19.2047 13.1982 19.083C13.6608 18.8553 13.8916 18.4237 13.8916 17.7842C13.8915 17.2419 13.6691 16.8709 13.2207 16.668C12.9699 16.5551 12.6175 16.4952 12.166 16.4912H9.56934ZM20.6611 14.833C20.1394 14.833 19.7313 14.9795 19.4434 15.2725C19.1554 15.5655 18.9737 15.963 18.8994 16.4639H22.415C22.3779 15.9293 22.1952 15.5252 21.8721 15.2471C21.545 14.9709 21.1426 14.8331 20.6611 14.833ZM9.56934 14.7695H12.1338C12.5904 14.7695 12.963 14.684 13.25 14.5117C13.5349 14.3394 13.6777 14.0341 13.6777 13.5986C13.6777 13.1127 13.4895 12.7931 13.1123 12.6367C12.7852 12.5288 12.3698 12.4746 11.8652 12.4746H9.56934V14.7695ZM22.8916 12.4473H18.3721V11.1523H22.8916V12.4473Z" fill="black"/>
</svg>
