<svg width="32" height="28" viewBox="0 0 32 28" fill="none" xmlns="http://www.w3.org/2000/svg">
<path d="M9.73704 20.1326C8.45623 19.7236 7.36799 18.909 6.6472 17.8184C6.07835 16.9584 5.00423 14.6761 6.5253 14.2503C8.04638 13.8245 9.73705 14.8344 10.9066 15.7365C12.0036 16.5831 13 17.5626 13.8568 18.6297C15.2542 20.3716 17.1021 23.0174 16.6004 25.3383C16.2966 26.7403 14.8143 27.0786 13.6819 26.2186C12.493 25.3148 12.3552 23.6687 12.2298 22.3307C11.9665 19.5368 11.9418 16.3222 14.1042 14.146C15.0122 13.2321 16.2948 12.5269 17.6551 12.6093C19.0154 12.6918 20.3457 13.6057 20.7785 14.831C21.7325 17.5272 18.1233 18.7273 15.9733 18.6616C13.4576 18.5842 11.0355 17.4919 9.24062 15.8358C8.35024 15.0144 7.61355 14.0551 7.07119 12.9931C6.52884 11.9311 5.91228 10.3406 6.31154 9.14393C7.11889 6.72369 11.0285 7.34474 12.887 7.86312C15.6659 8.63901 18.1515 10.1857 20.3651 11.9294C22.4232 13.5485 25.2269 15.6321 25.536 18.3536C25.8805 21.3831 23.008 23.5391 20.3775 24.5557C17.5968 25.6295 14.2738 26.567 11.2546 26.232C5.59783 25.6026 2.46911 19.6109 3.75876 14.666C4.41771 12.1431 6.15254 9.94675 8.71593 8.95374C11.1062 8.02806 14.037 8.17617 16.0263 9.85755C17.8141 11.3689 18.7663 13.8767 17.9996 16.0899C17.2788 18.1668 14.9521 19.5284 12.6979 19.4712C9.82184 19.3971 8.11881 16.8338 7.61178 14.3816C7.07649 11.7914 8.45447 9.64548 11.0868 8.87464C13.5123 8.16271 16.0333 8.86791 17.8388 10.5341C19.7945 12.3367 20.5382 14.9488 19.9058 17.4582C18.5667 22.7649 12.1361 25.1044 7.14009 22.7632C2.45852 20.5685 -0.898091 13.9861 2.31718 9.48391C5.27983 5.33517 12.0125 4.42968 16.5916 6.33995C18.9465 7.32286 20.8668 9.07997 21.7678 11.3942C22.6052 13.5468 22.6352 16.0697 21.5346 18.1466C20.2308 20.6056 17.5067 21.9049 14.7879 22.4738C11.9294 23.0712 8.85903 22.7649 6.5412 20.954C2.61398 17.8841 1.82959 12.4495 4.21631 8.29567C6.80266 3.79517 12.8781 0.349945 18.3335 1.44225C23.3048 2.43862 26.2533 7.59047 25.7586 12.1751C25.2039 17.3236 20.8986 22.1792 15.8991 24.0424C13.2597 25.0253 10.2759 24.9664 8.20714 22.9299C6.49704 21.2451 5.74269 18.7811 5.50949 16.4989C4.99717 11.4851 6.58361 5.24765 12.2421 3.56122C14.7985 2.7988 17.4519 3.35084 19.2663 5.27121C21.0806 7.19158 21.9091 10.1336 22.2201 12.7406C22.5363 15.3864 22.5434 18.4647 21.3279 20.9287C20.8209 21.9587 20.0542 22.8928 18.95 23.3809C17.5244 24.0104 15.8019 23.7512 14.4575 23.0628C11.986 21.7989 10.1292 19.0218 9.29008 16.5292C8.83253 15.171 8.66823 13.6326 9.37842 12.3215C10.0427 11.0963 11.3005 10.2985 12.5972 9.76666C17.4025 7.79412 23.2836 8.67436 27.4652 11.5709C28.534 12.3114 29.7159 13.2506 30.3254 14.3883C31.2016 16.0226 29.6382 17.0392 28.3026 17.7578C25.8116 19.0975 22.7518 19.4729 19.9994 18.702C17.247 17.9312 14.8073 15.8762 14.8302 12.9998C14.8532 10.1235 17.4855 8.73663 19.9765 8.07687C22.6158 7.3784 26.006 7.04347 28.2637 8.84098C29.9579 10.1908 30.6646 12.3939 30.5091 14.4456C30.1293 19.4493 24.4973 21.9167 19.7751 21.2771C17.0951 20.9136 14.6147 19.6159 12.5866 17.943C11.5814 17.1132 10.6645 16.1875 9.83598 15.1979C8.94736 14.1376 7.76548 12.744 7.89268 11.3033C8.02518 9.79191 9.75471 9.36778 11.062 9.13215C12.3693 8.89652 13.5795 8.85444 14.8391 8.93523C17.4537 9.10354 20.0224 9.90972 22.2466 11.2259C23.3984 11.9075 24.4513 12.7305 25.3753 13.6764C26.2992 14.6223 27.3769 15.8762 27.3168 17.2899C27.2055 19.9138 23.8807 21.6541 21.6265 22.4536C16.8336 24.1535 11.161 23.5038 7.03056 20.5904C4.87174 19.0672 2.82774 16.5376 3.15103 13.8329C3.46549 11.1973 6.08365 9.6236 8.53043 8.93018C11.3323 8.13409 14.6412 8.06004 17.1922 9.58489C19.526 10.9801 20.6902 13.5132 19.791 16.0445C18.9076 18.532 16.4591 20.104 13.7314 20.1158C11.0037 20.1276 8.33434 18.6364 6.88217 16.3525C5.43 14.0686 4.79224 10.8758 6.02005 8.47576C7.24786 6.07571 10.2405 5.49842 12.7315 5.76771C15.2224 6.037 17.6816 7.23029 19.2716 9.09344C21.0241 11.1485 21.3103 13.8514 20.3527 16.2969C19.3952 18.7424 17.5032 20.7638 15.3797 22.3172C14.2649 23.1318 12.9311 23.9649 11.4754 23.9919C10.214 24.0154 8.91732 23.3708 8.59403 22.1489C8.42797 21.5195 7.40509 21.7854 7.57115 22.4182C7.89445 23.6452 8.93146 24.4968 10.1858 24.8435C11.6803 25.2559 13.2332 24.8014 14.537 24.0811C17.3495 22.531 19.8634 19.966 21.1424 17.1132C22.3614 14.3968 22.2572 11.2881 20.4022 8.85108C18.6744 6.58231 15.8761 5.13825 12.9771 4.78649C10.078 4.43473 6.74613 5.18032 5.2392 7.7167C3.73226 10.2531 4.28698 13.9053 5.69852 16.4215C7.20193 19.0975 9.99144 20.922 13.1943 21.1122C16.3973 21.3024 19.1779 19.7657 20.4835 17.0863C21.7431 14.5011 21.1725 11.5726 18.9712 9.62697C16.4291 7.38008 12.8075 7.0502 9.53212 7.66115C6.71787 8.18459 3.64922 9.58489 2.49915 12.2559C1.25367 15.1491 2.86838 18.2745 5.0537 20.3144C9.49678 24.4615 16.7117 25.4612 22.3861 23.253C24.946 22.2566 28.1471 20.3396 28.3662 17.4162C28.4846 15.8375 27.5094 14.4809 26.4759 13.3398C25.4424 12.1987 24.2906 11.2814 23.0045 10.4921C20.351 8.86454 17.2081 7.95401 14.0547 7.89678C11.6185 7.85302 7.15069 8.13746 6.83976 11.1703C6.67723 12.7474 7.71602 14.2083 8.66823 15.3999C9.62045 16.5915 10.7228 17.7511 11.9436 18.7441C14.3427 20.6948 17.2664 22.1254 20.4464 22.3576C26.0696 22.77 32.0214 19.1379 31.5709 13.2876C31.3836 10.8623 30.0922 8.42863 27.7355 7.31276C24.8064 5.92592 20.9163 6.47123 18.0102 7.66957C15.1041 8.86791 13.3092 11.1636 13.8851 14.1561C14.461 17.1486 17.3601 19.1935 20.3739 19.8398C23.6316 20.5366 27.2037 19.8516 29.9067 17.9783C31.0497 17.1873 31.9648 16.1438 31.5868 14.7165C31.2087 13.2893 29.8943 12.1297 28.7301 11.2343C23.992 7.5871 16.5916 6.38708 11.138 9.33075C9.83244 10.036 8.70533 11.0643 8.18064 12.4276C7.60295 13.9255 7.82025 15.5884 8.36437 17.0627C9.40845 19.8987 11.5655 23.0174 14.5688 24.2241C17.5721 25.4309 20.669 24.3891 22.1388 21.6474C23.6087 18.9057 23.6457 15.1491 23.1917 12.0506C22.7607 9.11195 21.7502 5.87038 19.2892 3.87427C16.9891 2.00776 13.8604 1.78728 11.1256 2.87958C4.9424 5.34526 3.46373 12.8416 4.78341 18.5017C5.39113 21.1088 6.81857 23.8152 9.45085 25.0286C12.576 26.471 16.18 25.3703 18.9271 23.667C24.0786 20.4709 28.027 14.5331 26.5695 8.51951C25.9229 5.8485 24.2694 3.36094 21.8826 1.80579C19.0154 -0.0624042 15.3885 -0.0792347 12.1732 0.927235C6.51824 2.6995 1.4851 7.77729 1.76953 13.7303C1.89673 16.4046 3.05034 19.0521 5.01483 20.9775C7.29909 23.2143 10.4614 24.0457 13.6749 23.6704C16.8884 23.2951 20.3156 21.9503 22.1017 19.244C23.614 16.9533 23.7853 13.9895 22.9126 11.4514C20.9057 5.62129 13.8621 3.36767 8.00574 4.82183C5.13143 5.53545 2.23945 7.2 0.889745 9.81042C-0.557128 12.6093 -0.00946947 16.0445 1.46037 18.7323C2.93021 21.4202 5.35579 23.4499 8.34317 24.273C11.3305 25.096 14.7137 24.6752 17.247 22.9568C19.6496 21.3276 21.1354 18.6111 21.1972 15.8021C21.2626 12.8551 19.5772 10.078 16.9113 8.59357C14.5511 7.27742 11.5496 7.22019 9.18585 8.57674C6.52 10.1083 5.95291 12.914 6.86096 15.622C7.74958 18.2745 9.91194 20.5736 13.0248 20.4743C15.6146 20.3918 18.1127 18.8148 18.9854 16.4602C19.9076 13.9726 18.9094 11.071 16.952 9.29204C14.8073 7.34306 11.6026 6.92902 8.85019 7.82609C2.59455 9.86428 0.803181 17.4263 3.95485 22.5495C5.50596 25.0707 8.10291 26.8985 11.1839 27.2335C13.129 27.4455 15.0952 27.1156 16.9749 26.6444C18.7416 26.2034 20.5329 25.6918 22.1529 24.8738C24.9195 23.4785 27.2444 20.6998 26.4618 17.5643C25.6791 14.4287 22.554 12.2374 20.0984 10.4382C17.3795 8.44546 14.249 6.80111 10.79 6.42411C8.29901 6.15313 5.10316 7.0906 5.14556 9.94507C5.2286 15.5059 11.6556 20.3262 17.2965 19.6008C19.8475 19.2726 22.7695 17.369 21.7979 14.5583C20.8262 11.7476 17.5703 10.9532 15.0776 12.1718C11.9807 13.6865 11.0108 17.1368 11.0426 20.2117C11.0691 22.7464 11.1645 27.2536 14.6624 27.6997C17.7876 28.0985 18.065 24.4951 17.3212 22.4906C16.2312 19.5537 14.0794 16.8742 11.5461 14.932C10.3324 14.0012 8.83959 13.1075 7.21959 13.1378C5.98118 13.1597 4.74984 13.7101 4.70037 15.0094C4.59438 17.7578 6.8221 20.2639 9.45615 21.1021C10.1045 21.3091 10.3819 20.3329 9.73881 20.1276L9.73704 20.1326Z" fill="black"/>
</svg>
