<svg width="32" height="32" viewBox="0 0 32 32" fill="none" xmlns="http://www.w3.org/2000/svg">
<path fill-rule="evenodd" clip-rule="evenodd" d="M16.0003 6.66797C13.4654 6.66797 13.1481 6.67855 12.1525 6.72397C11.1588 6.76939 10.48 6.92744 9.88637 7.15828C9.26415 7.39224 8.69979 7.75935 8.23313 8.23472C7.75851 8.70085 7.39117 9.26481 7.15668 9.88735C6.92708 10.4809 6.76841 11.1604 6.72299 12.1541C6.67819 13.149 6.66699 13.4657 6.66699 16.0013C6.66699 18.5369 6.67757 18.8536 6.72299 19.8491C6.76841 20.8428 6.92646 21.5217 7.1573 22.1153C7.39126 22.7375 7.75837 23.3018 8.23375 23.7685C8.69989 24.2431 9.26384 24.6104 9.88637 24.8449C10.48 25.0752 11.1588 25.2332 12.1525 25.2786C13.1481 25.3241 13.4654 25.3346 16.0003 25.3346C18.5353 25.3346 18.8526 25.3241 19.8481 25.2786C20.8418 25.2332 21.5207 25.0752 22.1143 24.8443C22.7365 24.6104 23.3009 24.2433 23.7675 23.7679C24.2421 23.3018 24.6095 22.7378 24.844 22.1153C25.0742 21.5217 25.2322 20.8428 25.2777 19.8491C25.3231 18.8536 25.3337 18.5362 25.3337 16.0013C25.3337 13.4664 25.3231 13.149 25.2777 12.1535C25.2322 11.1598 25.0742 10.4809 24.8433 9.88735C24.609 9.26454 24.2417 8.70035 23.7669 8.2341C23.3008 7.75948 22.7368 7.39215 22.1143 7.15766C21.5207 6.92806 20.8412 6.76939 19.8475 6.72397C18.8526 6.67917 18.5359 6.66797 16.0003 6.66797ZM16.0003 8.34984C18.4923 8.34984 18.7879 8.35917 19.7722 8.40397C20.6819 8.44566 21.176 8.59686 21.5051 8.72566C21.9407 8.89428 22.2518 9.09712 22.5785 9.42317C22.9051 9.74984 23.1073 10.0609 23.276 10.4965C23.4041 10.8257 23.556 11.3197 23.5977 12.2294C23.6425 13.2137 23.6518 13.5093 23.6518 16.0013C23.6518 18.4933 23.6425 18.7889 23.5977 19.7732C23.556 20.6829 23.4048 21.1769 23.276 21.5061C23.1266 21.9115 22.8882 22.2783 22.5785 22.5794C22.2774 22.8893 21.9106 23.1276 21.5051 23.2769C21.176 23.4051 20.6819 23.5569 19.7722 23.5986C18.7879 23.6434 18.4929 23.6528 16.0003 23.6528C13.5077 23.6528 13.2128 23.6434 12.2284 23.5986C11.3187 23.5569 10.8247 23.4057 10.4955 23.2769C10.0901 23.1276 9.72335 22.8892 9.42219 22.5794C9.11244 22.2782 8.87409 21.9115 8.72468 21.5061C8.5965 21.1769 8.44468 20.6829 8.40299 19.7732C8.35819 18.7889 8.34886 18.4933 8.34886 16.0013C8.34886 13.5093 8.35819 13.2137 8.40299 12.2294C8.44468 11.3197 8.59588 10.8257 8.72468 10.4965C8.8933 10.0609 9.09615 9.74984 9.42219 9.42317C9.72331 9.11333 10.0901 8.87498 10.4955 8.72566C10.8247 8.59748 11.3187 8.44566 12.2284 8.40397C13.2128 8.35917 13.5083 8.34984 16.0003 8.34984V8.34984ZM15.9897 19.0081C15.5928 19.0081 15.1998 18.9286 14.8331 18.7743C14.4663 18.6199 14.1331 18.3937 13.8525 18.1085C13.5718 17.8233 13.3492 17.4847 13.1973 17.1121C13.0454 16.7395 12.9672 16.3401 12.9672 15.9368C12.9672 15.5334 13.0454 15.1341 13.1973 14.7614C13.3492 14.3888 13.5718 14.0502 13.8525 13.765C14.1331 13.4798 14.4663 13.2536 14.8331 13.0993C15.1998 12.9449 15.5928 12.8655 15.9897 12.8655C16.7913 12.8655 17.5601 13.1891 18.127 13.765C18.6938 14.341 19.0122 15.1222 19.0122 15.9368C19.0122 16.7513 18.6938 17.5325 18.127 18.1085C17.5601 18.6845 16.7913 19.0081 15.9897 19.0081V19.0081ZM15.9897 11.2056C14.7549 11.2056 13.5706 11.704 12.6974 12.5913C11.8242 13.4786 11.3337 14.682 11.3337 15.9368C11.3337 17.1916 11.8242 18.395 12.6974 19.2822C13.5706 20.1695 14.7549 20.668 15.9897 20.668C17.2246 20.668 18.4089 20.1695 19.2821 19.2822C20.1552 18.395 20.6458 17.1916 20.6458 15.9368C20.6458 14.682 20.1552 13.4786 19.2821 12.5913C18.4089 11.704 17.2246 11.2056 15.9897 11.2056V11.2056ZM22.0003 11.1197C22.0003 11.4163 21.8844 11.7007 21.678 11.9105C21.4716 12.1202 21.1916 12.238 20.8997 12.238C20.6078 12.238 20.3279 12.1202 20.1215 11.9105C19.9151 11.7007 19.7991 11.4163 19.7991 11.1197C19.7991 10.8231 19.9151 10.5386 20.1215 10.3289C20.3279 10.1191 20.6078 10.0013 20.8997 10.0013C21.1916 10.0013 21.4716 10.1191 21.678 10.3289C21.8844 10.5386 22.0003 10.8231 22.0003 11.1197" fill="black"/>
</svg>
