<svg width="125" height="32" viewBox="0 0 125 32" fill="none" xmlns="http://www.w3.org/2000/svg">
<path d="M23.0051 11.7733C23.2255 10.5559 24.2585 9.73649 25.4923 9.46595C26.8371 9.17209 28.1803 9.67274 29.2476 10.4439C31.4802 12.0563 32.8886 14.7663 33.3276 17.3628C33.7667 19.9594 33.1318 22.7969 31.2485 24.829C29.5544 26.6559 27.0297 27.8469 24.4348 27.5919C18.3001 26.9886 15.3379 20.2066 14.4534 15.1783C13.9915 12.5569 14.1727 9.59034 16.185 7.56131C18.1972 5.53228 21.05 4.9228 23.7575 5.17001C29.3537 5.68155 33.7552 10.1081 34.098 15.424C34.4423 20.771 30.8519 25.5551 25.5364 27.1954C22.8827 28.0148 19.8423 28.0273 17.2833 26.8954C14.7243 25.7635 12.8997 23.3862 11.9466 20.8238C10.0192 15.6385 10.6231 9.18298 15.1535 5.38302C19.684 1.58307 26.3981 2.63723 30.1991 6.79945C33.5676 10.489 34.1959 15.6463 32.3419 20.1257C30.4879 24.6051 26.2953 28.3553 21.254 28.6181C15.4473 28.9213 11.914 22.475 11.3852 17.7375C11.1029 15.2141 11.6006 12.504 13.4024 10.545C14.9136 8.90311 17.1413 7.99044 19.4033 7.81163C21.6653 7.63283 24.0252 8.14125 25.9199 9.37733C28.1999 10.8653 29.8661 13.5877 28.4332 16.1454C27.1554 18.4263 24.4054 19.7681 21.9868 20.6917C19.2368 21.7427 16.0332 22.2807 13.3045 20.872C10.7308 19.5411 9.86906 16.8762 10.548 14.2594C11.191 11.7842 12.9421 9.68207 15.1144 8.24076C19.4996 5.33016 25.3504 5.07051 29.8743 7.83807C32.0596 9.17365 33.8417 11.1109 34.9221 13.3607C36.1298 15.8749 36.6031 19.056 34.2399 21.099C32.1053 22.943 28.9081 23.4794 26.1272 23.1389C23.3462 22.7984 20.7187 21.5048 18.7358 19.5846C16.7529 17.6645 15.4408 15.3322 14.8549 12.7917C14.5105 11.2991 14.5056 9.65408 15.3902 8.32317C16.2747 6.99225 17.7599 6.46828 19.3821 6.80101C22.1402 7.36696 24.8624 8.86735 27.1407 10.4097C29.419 11.9521 31.743 13.9329 33.2607 16.206C34.253 17.694 34.1224 19.0933 32.8331 20.3558C31.8327 21.3338 30.5956 22.1268 29.3504 22.7953C26.7604 24.1884 23.8179 25.0078 20.8444 25.1213C18.1026 25.2255 14.8516 24.6813 13.262 22.3009C12.588 21.2918 12.2355 20.0309 12.5586 18.8492C12.9258 17.5059 14.1498 16.5854 15.4946 16.1796C18.3588 15.3151 21.6147 16.6367 24.1737 17.8215C26.5891 18.941 28.8625 20.4242 30.5614 22.4299C30.9808 22.9244 31.3594 23.4546 31.6875 24.0081C31.8637 24.305 32.1738 24.8088 32.0579 25.1711C31.9143 25.6189 31.2827 25.7635 30.8845 25.8941C29.4957 26.3481 28.0415 26.5937 26.5727 26.631C23.6824 26.7041 20.7709 25.9889 18.3213 24.5134C16.1262 23.1918 13.9344 20.7772 14.5203 18.12C15.0344 15.7909 17.4383 14.3823 19.6889 13.7961C22.4274 13.0824 25.6653 13.3157 28.2096 14.5393C28.7906 14.8192 29.4206 15.1923 29.7127 15.7723C30.075 16.4875 29.7029 17.2633 29.1121 17.7453C27.7543 18.8508 25.791 18.148 24.4217 17.4452C19.7999 15.0741 16.7023 10.2309 16.5554 5.23687C16.5179 3.98991 16.5065 2.3527 17.6309 1.50067C18.5905 0.773015 19.9712 0.897399 21.0843 1.16949C23.6416 1.79608 26.1043 3.32135 28.208 4.79841C30.501 6.40764 32.5671 8.3356 34.3003 10.489C35.18 11.5805 36.1119 12.7621 36.6504 14.048C37.2412 15.4628 36.9866 16.8249 36.0906 18.0625C34.5827 20.1475 32.0628 21.6852 29.6654 22.688C27.268 23.6909 24.5605 24.2226 21.9035 24.2118C16.6615 24.19 10.6426 21.9231 8.33987 17.1249C7.14523 14.6357 7.14034 11.5836 8.81805 9.29181C10.3521 7.19748 12.9536 6.02982 15.5093 5.50896C20.722 4.44392 26.3899 5.86968 30.5957 8.92332C31.6271 9.67119 32.5753 10.5279 33.4158 11.4685C34.3819 12.5507 35.2273 13.7945 34.0767 15.0633C33.2314 15.9961 31.9486 16.4875 30.7621 16.8933C29.4924 17.3271 28.1917 17.6785 26.873 17.9459C21.6751 19.0016 16.0364 18.7668 11.1225 16.7378C9.90986 16.2371 8.74461 15.6277 7.65279 14.9171C6.50385 14.1677 5.07094 13.199 4.72495 11.8293C4.30063 10.147 6.47611 9.39132 7.78661 9.00884C9.24237 8.58437 10.7634 8.432 12.2828 8.43978C18.0716 8.46932 23.9436 10.332 28.8445 13.2084C30.1158 13.9547 31.3382 14.7772 32.4937 15.679C33.5724 16.5201 34.8683 17.4794 35.3236 18.787C35.8736 20.3683 34.3754 21.2918 33.14 21.9775C31.7887 22.7269 30.3753 23.3784 28.9147 23.9117C26.2382 24.8897 23.2614 25.6779 20.3743 25.6764C17.9263 25.6764 15.0115 24.7606 14.9038 22.0039C14.8059 19.4711 16.797 17.2353 18.7456 15.7427C20.9488 14.0542 23.6726 13.0125 26.483 12.7497C27.1048 12.6922 27.1113 11.7577 26.483 11.8168C23.3071 12.1138 20.3058 13.2892 17.8529 15.2405C15.6676 16.9788 13.5248 19.6904 13.9834 22.5699C14.442 25.4494 17.2654 26.5035 19.9223 26.6015C23.2679 26.7243 26.7898 25.7541 29.8531 24.5538C31.4574 23.9257 33.0649 23.1965 34.5076 22.2714C35.632 21.5499 36.5541 20.5409 36.4073 19.168C36.2489 17.6924 35.0233 16.5232 33.9103 15.6012C32.652 14.5595 31.3137 13.6033 29.9118 12.745C27.0672 11.0021 23.9485 9.65408 20.7007 8.75696C17.453 7.85983 13.8512 7.27056 10.4305 7.58152C8.02815 7.7992 2.93627 8.78339 3.78165 12.0749C4.14069 13.4696 5.39245 14.4911 6.54955 15.3074C7.81436 16.1983 9.18851 16.943 10.6296 17.5416C16.3743 19.9251 22.9954 20.006 28.98 18.4123C31.2827 17.7997 35.193 16.8078 35.6288 14.0993C35.8507 12.7264 34.834 11.5914 33.9478 10.6289C32.9425 9.53592 31.7903 8.57038 30.5434 7.73389C25.618 4.42837 18.7358 3.11767 13.0156 5.23998C10.2803 6.25527 7.85353 8.11327 6.92654 10.8482C5.94896 13.7292 6.74865 16.9835 8.61241 19.3779C12.3155 24.1309 19.1846 25.7774 25.0974 24.913C28.128 24.4699 31.0755 23.3519 33.5659 21.6417C35.9225 20.0231 38.5909 17.5805 37.8385 14.5331C37.4632 13.014 36.417 11.6536 35.4623 10.419C34.5076 9.18453 33.4435 8.00443 32.2929 6.91606C29.9641 4.7129 27.2696 2.84713 24.3401 1.43381C22.2006 0.401415 18.917 -0.918617 16.8263 0.925386C15.7264 1.89559 15.5779 3.43174 15.5697 4.77665C15.5615 6.1993 15.7819 7.63128 16.2013 8.99484C17.0401 11.7266 18.6722 14.2532 20.8786 16.175C22.8648 17.9055 26.4699 20.3107 29.2215 18.8041C30.3394 18.1915 31.1277 16.9415 30.7327 15.7054C30.3378 14.4693 28.9343 13.7759 27.7347 13.3281C24.784 12.2242 21.2083 12.1433 18.2511 13.2737C15.8341 14.1972 13.6586 16.0304 13.4628 18.644C13.2473 21.5048 15.5468 23.9739 17.941 25.3841C20.7301 27.0275 24.1068 27.7676 27.3708 27.5219C28.9033 27.4069 30.5467 27.1301 31.9437 26.4958C33.4892 25.793 33.0796 24.3735 32.3419 23.2245C30.7132 20.687 28.1966 18.7793 25.4646 17.3986C22.7326 16.0179 19.1715 14.5222 15.9434 15.1068C13.0939 15.6245 11.0049 17.9257 11.5631 20.743C12.1212 23.5603 14.9153 25.4058 17.8186 25.877C21.0908 26.4071 24.5931 25.8194 27.6352 24.6191C29.197 24.0034 30.674 23.2074 32.022 22.234C33.1791 21.3991 34.4603 20.3838 34.847 18.986C35.2551 17.5074 34.4717 16.1299 33.5512 14.9886C32.528 13.7199 31.3709 12.546 30.1175 11.481C27.6776 9.40998 24.8738 7.75255 21.8415 6.59266C20.2878 5.99873 18.5138 5.40479 16.8574 5.9894C15.5811 6.43874 14.6166 7.48512 14.1123 8.66678C12.8883 11.5338 14.2478 15.0539 15.8455 17.5478C19.1667 22.7331 26.0178 25.7137 32.1738 23.3659C35.1865 22.2169 37.22 19.8241 36.8887 16.6305C36.5949 13.807 35.0821 11.1218 33.029 9.10213C28.7711 4.91347 22.2724 3.82044 16.7382 6.27859C14.0291 7.48046 11.6023 9.5297 10.3211 12.1309C9.04 14.7321 8.82784 17.7095 10.6883 19.9842C12.5488 22.2589 16.0218 22.9757 18.992 22.4984C21.9623 22.021 25.5087 20.5362 27.7935 18.4403C29.9265 16.4844 30.6479 13.6981 29.0762 11.1949C27.6433 8.91088 25.0011 7.44781 22.2887 7.0078C19.746 6.59422 17.0271 6.96426 14.801 8.24076C12.3465 9.64631 10.845 12.0718 10.455 14.7492C10.0241 17.708 10.7928 20.7647 12.1914 23.4095C13.5003 25.8847 15.555 28.2605 18.3865 29.1856C21.2181 30.1107 24.678 29.1498 27.2011 27.5981C29.4728 26.2004 31.3203 24.1962 32.5606 21.9106C35.1849 17.0752 34.989 11.1762 31.4541 6.79323C27.5111 1.90647 20.0284 0.404525 14.8304 4.42371C9.54266 8.5113 8.83273 16.0226 11.2759 21.7505C12.446 24.4932 14.4681 26.8409 17.409 27.9511C20.3499 29.0612 23.7836 28.898 26.7082 27.7754C32.5492 25.5333 36.0139 19.7837 34.8764 13.8443C33.7389 7.90492 28.0056 3.75514 21.8285 4.21847C18.8174 4.44392 15.7819 5.84014 14.313 8.45377C12.8442 11.0674 13.1315 14.3154 13.892 17.128C14.7292 20.2237 16.0707 23.4235 18.4959 25.709C20.6714 27.7583 23.6971 28.9819 26.7669 28.4004C29.574 27.8687 32.0563 25.9531 33.3456 23.5401C34.7834 20.8487 34.7279 17.6085 33.6263 14.8192C32.6324 12.305 30.7262 9.63698 27.9469 8.71809C25.618 7.9469 22.5188 9.00728 22.0618 11.5261C21.9558 12.1138 22.8991 12.3657 23.0068 11.7748L23.0051 11.7733Z" fill="black"/>
<path d="M59.4197 21.6695C58.1389 21.2605 57.0506 20.4459 56.3298 19.3553C55.761 18.4952 54.6869 16.213 56.2079 15.7872C57.729 15.3614 59.4197 16.3712 60.5892 17.2733C61.6863 18.1199 62.6826 19.0995 63.5395 20.1665C64.9369 21.9085 66.7848 24.5543 66.283 26.8752C65.9792 28.2772 64.497 28.6155 63.3646 27.7554C62.1756 26.8516 62.0378 25.2056 61.9124 23.8676C61.6492 21.0737 61.6244 17.859 63.7868 15.6828C64.6948 14.7689 65.9774 14.0637 67.3377 14.1462C68.698 14.2287 70.0283 15.1426 70.4611 16.3679C71.4151 19.0641 67.8059 20.2641 65.6559 20.1985C63.1402 20.1211 60.7181 19.0288 58.9232 17.3726C58.0329 16.5513 57.2962 15.592 56.7538 14.53C56.2115 13.4679 55.5949 11.8774 55.9942 10.6808C56.8015 8.26056 60.7111 8.8816 62.5696 9.39999C65.3485 10.1759 67.8341 11.7226 70.0477 13.4663C72.1059 15.0854 74.9095 17.169 75.2187 19.8905C75.5632 22.92 72.6906 25.076 70.0601 26.0926C67.2794 27.1664 63.9564 28.1038 60.9372 27.7689C55.2804 27.1394 52.1517 21.1477 53.4414 16.2029C54.1003 13.68 55.8352 11.4836 58.3985 10.4906C60.7888 9.56493 63.7196 9.71304 65.7089 11.3944C67.4967 12.9058 68.4489 15.4136 67.6822 17.6268C66.9614 19.7037 64.6348 21.0653 62.3805 21.008C59.5045 20.934 57.8014 18.3707 57.2944 15.9185C56.7591 13.3282 58.1371 11.1823 60.7694 10.4115C63.195 9.69957 65.7159 10.4048 67.5214 12.071C69.4771 13.8736 70.2209 16.4857 69.5884 18.9951C68.2493 24.3018 61.8188 26.6412 56.8227 24.3001C52.1411 22.1054 48.7845 15.523 51.9998 11.0208C54.9624 6.87203 61.6951 5.96655 66.2742 7.87682C68.6291 8.85972 70.5495 10.6168 71.4504 12.931C72.2878 15.0837 72.3178 17.6066 71.2172 19.6835C69.9135 22.1424 67.1893 23.4418 64.4705 24.0106C61.6121 24.6081 58.5416 24.3018 56.2238 22.4908C52.2966 19.4209 51.5122 13.9863 53.8989 9.83253C56.4853 5.33203 62.5607 1.88681 68.0161 2.97912C72.9874 3.97549 75.9359 9.12733 75.4413 13.712C74.8865 18.8605 70.5813 23.7161 65.5817 25.5792C62.9423 26.5621 59.9585 26.5032 57.8898 24.4667C56.1797 22.782 55.4253 20.318 55.1921 18.0358C54.6798 13.0219 56.2662 6.78451 61.9248 5.09809C64.4811 4.33566 67.1345 4.88771 68.9489 6.80808C70.7632 8.72845 71.5918 11.6704 71.9027 14.2775C72.2189 16.9233 72.226 20.0016 71.0105 22.4656C70.5035 23.4956 69.7368 24.4297 68.6327 24.9178C67.207 25.5473 65.4845 25.2881 64.1401 24.5997C61.6686 23.3357 59.8119 20.5587 58.9727 18.0661C58.5151 16.7078 58.3508 15.1695 59.061 13.8584C59.7253 12.6331 60.9831 11.8354 62.2798 11.3035C67.0851 9.33098 72.9662 10.2112 77.1478 13.1078C78.2166 13.8483 79.3985 14.7875 80.008 15.9252C80.8843 17.5595 79.3208 18.576 77.9852 19.2947C75.4943 20.6344 72.4345 21.0097 69.682 20.2389C66.9296 19.468 64.4899 17.413 64.5129 14.5367C64.5358 11.6603 67.1681 10.2735 69.6591 9.61373C72.2984 8.91527 75.6886 8.58034 77.9463 10.3778C79.6406 11.7277 80.3472 13.9308 80.1917 15.9824C79.8119 20.9862 74.1799 23.4535 69.4577 22.814C66.7777 22.4504 64.2973 21.1528 62.2692 19.4798C61.264 18.6501 60.3471 17.7244 59.5186 16.7348C58.63 15.6744 57.4481 14.2809 57.5753 12.8402C57.7078 11.3288 59.4373 10.9046 60.7446 10.669C62.0519 10.4334 63.2621 10.3913 64.5217 10.4721C67.1363 10.6404 69.705 11.4466 71.9292 12.7627C73.081 13.4444 74.134 14.2674 75.0579 15.2133C75.9819 16.1592 77.0595 17.413 76.9994 18.8268C76.8881 21.4507 73.5633 23.191 71.3091 23.9904C66.5162 25.6903 60.8436 25.0407 56.7132 22.1273C54.5544 20.6041 52.5104 18.0745 52.8337 15.3698C53.1481 12.7341 55.7663 11.1605 58.2131 10.467C61.0149 9.67096 64.3238 9.5969 66.8749 11.1218C69.2086 12.517 70.3728 15.05 69.4736 17.5813C68.5903 20.0689 66.1417 21.6409 63.414 21.6527C60.6863 21.6644 58.017 20.1732 56.5648 17.8893C55.1126 15.6054 54.4749 12.4127 55.7027 10.0126C56.9305 7.61258 59.9232 7.03529 62.4141 7.30458C64.9051 7.57387 67.3642 8.76716 68.9542 10.6303C70.7067 12.6853 70.9929 15.3883 70.0354 17.8338C69.0778 20.2793 67.1858 22.3006 65.0623 23.8541C63.9475 24.6687 62.6137 25.5018 61.158 25.5287C59.8967 25.5523 58.5999 24.9077 58.2766 23.6858C58.1106 23.0563 57.0877 23.3223 57.2538 23.9551C57.5771 25.182 58.6141 26.0337 59.8684 26.3804C61.363 26.7927 62.9158 26.3383 64.2196 25.6179C67.0321 24.0678 69.546 21.5029 70.825 18.6501C72.044 15.9336 71.9398 12.825 70.0848 10.3879C68.3571 8.11918 65.5587 6.67511 62.6597 6.32335C59.7606 5.9716 56.4288 6.71719 54.9218 9.25356C53.4149 11.7899 53.9696 15.4422 55.3811 17.9583C56.8845 20.6344 59.6741 22.4588 62.877 22.649C66.0799 22.8392 68.8606 21.3026 70.1661 18.6232C71.4257 16.038 70.8551 13.1094 68.6539 11.1638C66.1117 8.91695 62.4901 8.58707 59.2147 9.19802C56.4005 9.72145 53.3318 11.1218 52.1818 13.7928C50.9363 16.6859 52.551 19.8114 54.7363 21.8513C59.1794 25.9983 66.3943 26.9981 72.0688 24.7899C74.6286 23.7935 77.8297 21.8765 78.0488 18.953C78.1672 17.3743 77.192 16.0178 76.1585 14.8767C75.125 13.7355 73.9732 12.8183 72.6871 12.0289C70.0336 10.4014 66.8908 9.49087 63.7373 9.43365C61.3011 9.38989 56.8333 9.67433 56.5224 12.7072C56.3599 14.2842 57.3986 15.7451 58.3508 16.9367C59.3031 18.1283 60.4054 19.288 61.6262 20.281C64.0253 22.2316 66.9491 23.6622 70.129 23.8945C75.7522 24.3068 81.704 20.6748 81.2535 14.8245C81.0662 12.3992 79.7748 9.96549 77.4181 8.84963C74.489 7.46279 70.5989 8.0081 67.6928 9.20643C64.7867 10.4048 62.9918 12.7005 63.5677 15.6929C64.1436 18.6854 67.0427 20.7303 70.0566 21.3766C73.3142 22.0734 76.8864 21.3884 79.5893 19.5152C80.7323 18.7241 81.6474 17.6806 81.2694 16.2534C80.8913 14.8262 79.5769 13.6665 78.4127 12.7712C73.6746 9.12396 66.2742 7.92394 60.8206 10.8676C59.5151 11.5728 58.3879 12.6012 57.8633 13.9644C57.2856 15.4624 57.5029 17.1252 58.047 18.5996C59.0911 21.4355 61.2481 24.5543 64.2514 25.761C67.2547 26.9678 70.3516 25.9259 71.8214 23.1842C73.2913 20.4425 73.3284 16.686 72.8743 13.5874C72.4433 10.6488 71.4328 7.40724 68.9718 5.41114C66.6717 3.54462 63.543 3.32414 60.8082 4.41645C54.625 6.88213 53.1463 14.3785 54.466 20.0386C55.0737 22.6457 56.5012 25.352 59.1335 26.5655C62.2586 28.0079 65.8626 26.9072 68.6097 25.2039C73.7612 22.0078 77.7096 16.07 76.2521 10.0564C75.6056 7.38536 73.952 4.8978 71.5653 3.34266C68.698 1.47446 65.0711 1.45763 61.8558 2.4641C56.2009 4.23636 51.1677 9.31415 51.4521 15.2671C51.5793 17.9415 52.733 20.589 54.6975 22.5144C56.9817 24.7512 60.144 25.5826 63.3575 25.2073C66.571 24.832 69.9983 23.4872 71.7843 20.7808C73.2966 18.4902 73.4679 15.5263 72.5952 12.9883C70.5883 7.15815 63.5448 4.90454 57.6884 6.3587C54.814 7.07232 51.9221 8.73686 50.5724 11.3473C49.1255 14.1462 49.6731 17.5813 51.143 20.2692C52.6128 22.957 55.0384 24.9868 58.0258 25.8098C61.0132 26.6328 64.3963 26.2121 66.9296 24.4937C69.3322 22.8645 70.818 20.148 70.8798 17.339C70.9452 14.3919 69.2598 11.6149 66.594 10.1304C64.2337 8.81428 61.2322 8.75706 58.8685 10.1136C56.2026 11.6452 55.6355 14.4508 56.5436 17.1589C57.4322 19.8114 59.5946 22.1104 62.7074 22.0111C65.2973 21.9287 67.7953 20.3517 68.668 17.9971C69.5902 15.5095 68.592 12.6079 66.6346 10.8289C64.4899 8.87992 61.2852 8.46589 58.5328 9.36296C52.2772 11.4011 50.4858 18.9631 53.6375 24.0864C55.1886 26.6076 57.7855 28.4354 60.8665 28.7703C62.8116 28.9824 64.7779 28.6525 66.6576 28.1812C68.4242 27.7403 70.2156 27.2286 71.8356 26.4107C74.6021 25.0154 76.927 22.2367 76.1444 19.1011C75.3618 15.9656 72.2366 13.7743 69.781 11.9751C67.0621 9.98233 63.9316 8.33798 60.4726 7.96097C57.9816 7.69 54.7858 8.62746 54.8282 11.4819C54.9112 17.0428 61.3382 21.863 66.9791 21.1376C69.5301 20.8094 72.4521 18.9059 71.4805 16.0952C70.5088 13.2845 67.2529 12.4901 64.7602 13.7086C61.6633 15.2234 60.6934 18.6736 60.7252 21.7486C60.7517 24.2833 60.8471 28.7905 64.345 29.2365C67.4702 29.6354 67.7476 26.032 67.0038 24.0275C65.9138 21.0905 63.762 18.4111 61.2287 16.4688C60.015 15.5381 58.5222 14.6444 56.9022 14.6747C55.6638 14.6966 54.4325 15.2469 54.383 16.5463C54.277 19.2947 56.5047 21.8008 59.1388 22.6389C59.7871 22.8459 60.0645 21.8698 59.4214 21.6644L59.4197 21.6695Z" fill="black"/>
<path d="M106.02 21.3697C103.693 21.6121 101.358 20.1747 100.699 18.0086C100.303 16.7043 100.617 15.3898 102.112 15.0094C103.297 14.7065 104.677 14.9387 105.834 15.2467C108.316 15.9065 110.654 17.401 112.277 19.3063C113.901 21.2115 114.747 23.9566 112.615 25.7558C111.639 26.5788 110.316 26.6293 109.263 25.9005C108.126 25.1128 107.633 23.8202 107.544 22.5243C107.456 21.2283 107.68 19.9054 108.016 18.6633C108.308 17.5795 108.806 16.3979 109.878 15.8139C111.627 14.8596 114.148 16.0765 114.657 17.8622C115.295 20.0956 113.198 22.4182 110.903 22.6539C107.843 22.9703 107.057 19.9105 106.456 17.7006C105.855 15.4908 105.435 11.8066 108.364 10.7698C109.742 10.2817 111.143 11.0441 112.185 11.8621C113.152 12.6228 114.236 13.5569 114.68 14.7065C115.63 17.1738 113.473 19.5301 111.265 20.4928C110.055 21.0196 108.739 21.299 107.433 21.5043C106.128 21.7097 104.596 21.9302 103.31 21.4017C100.973 20.4407 100.497 17.6131 101.289 15.548C102.197 13.1783 104.343 11.2663 106.585 10.0141C108.827 8.76191 112.085 7.62752 114.652 8.73834C115.849 9.25673 116.872 10.2868 116.982 11.5827C117.091 12.8787 116.363 14.04 115.517 14.9606C113.782 16.849 111.283 18.2409 108.862 19.175C106.442 20.1091 103.633 20.8227 101.017 20.3363C98.6847 19.9021 96.5506 18.2039 96.4888 15.7971C96.427 13.3903 98.8296 12.335 100.985 12.2273C103.561 12.0994 106.241 12.946 108.484 14.0972C110.555 15.1592 113.139 16.9769 112.843 19.5217C112.553 22.0143 109.728 23.7092 107.343 24.0912C102.596 24.8503 98.9179 20.0468 100.188 15.8392C101.575 11.2461 107.135 9.15406 111.714 10.2464C114.192 10.8371 116.441 12.1701 118.22 13.902C119.137 14.7957 120.07 15.8695 120.324 17.1318C120.623 18.6162 119.52 19.6715 118.441 20.5635C114.826 23.5493 109.772 25.2895 104.999 24.3437C102.939 23.9347 100.98 23.0292 99.5875 21.4959C97.9392 19.6799 97.3986 17.1385 97.8792 14.8108C98.9003 9.87609 104.156 6.80114 109.232 7.01994C114.307 7.23874 118.323 11.3033 118.824 16.1068C119.315 20.8143 116.443 26.0048 112.157 28.3847C110.97 29.0445 109.562 29.4652 108.189 29.1505C106.898 28.8543 105.877 27.9572 105.073 26.9928C103.4 24.9866 102.191 22.5159 101.331 20.104C99.7995 15.8173 98.5416 9.53275 103.07 6.45612C106.615 4.04766 111.562 4.54753 114.466 7.62584C117.542 10.8859 117.863 15.7752 115.614 19.52C113.365 23.2648 108.182 26.5754 103.377 25.8483C100.683 25.441 98.8349 23.5526 97.5541 21.3798C96.2733 19.207 95.2257 16.541 94.8829 13.9474C94.2522 9.18267 96.3015 3.77332 101.451 2.16431C106.601 0.55531 111.961 3.05129 115.733 6.41404C117.593 8.07185 119.234 10.0208 119.418 12.532C119.573 14.661 118.816 16.8473 117.413 18.5051C114.266 22.2196 108.361 22.5866 104.186 20.3127C102.087 19.1683 100.402 17.4347 99.2165 15.4386C98.6194 14.4321 98.1512 13.3634 97.8138 12.2543C97.6548 11.7308 97.4905 11.1838 97.441 10.6402C97.358 9.7364 97.8456 9.26514 98.6671 8.95041C103.538 7.08558 109.247 9.01941 113.482 11.438C115.544 12.6161 118.192 14.0905 119.236 16.2583C120.453 18.7896 117.526 21.0179 115.717 22.4704C113.721 24.0727 111.445 25.3905 109.03 26.3347C106.921 27.1594 103.518 28.3258 101.851 26.1445C100.223 24.0172 101.6 21.3192 103.225 19.6294C104.85 17.9396 106.827 16.7497 109.027 16.0007C111.226 15.2518 113.408 14.9859 115.653 15.1542C116.787 15.24 117.911 15.4537 118.994 15.7887C119.764 16.026 122.034 16.6151 121.785 17.6855C121.536 18.7559 119.545 18.9545 118.676 19.1615C117.233 19.5049 115.784 19.8297 114.318 20.0721C111.473 20.5416 108.47 20.6998 105.668 19.9172C103.499 19.3113 101.437 18.1702 99.9956 16.4888C99.266 15.6372 98.6724 14.5954 98.4303 13.5149C98.0823 11.953 99.4409 11.2326 100.828 10.9145C103.667 10.2615 106.681 10.9802 109.24 12.1953C110.459 12.7726 111.615 13.4644 112.735 14.1999C113.297 14.5685 113.85 14.9505 114.399 15.3376C114.948 15.7247 115.715 16.1303 116.116 16.7009C116.655 17.465 115.399 17.6316 114.853 17.7646C114.157 17.9363 113.454 18.0776 112.744 18.187C111.208 18.4243 109.647 18.5085 108.092 18.4546C106.709 18.4058 105.242 18.3049 103.914 17.9076C102.585 17.5104 101.248 16.1977 102.601 15.0347C104.345 13.5351 107.064 12.7423 109.338 12.4091C111.862 12.0405 114.429 12.261 116.849 13.0285C117.498 13.2338 117.777 12.2593 117.132 12.054C114.168 11.1148 110.973 10.9785 107.928 11.6416C106.44 11.9648 104.99 12.4848 103.649 13.1816C102.573 13.7404 101.186 14.4675 100.999 15.7466C100.536 18.9007 105.212 19.2928 107.43 19.4291C109.189 19.5385 110.954 19.4561 112.698 19.207C113.572 19.0824 114.44 18.9124 115.295 18.6953C115.908 18.5405 116.673 18.4025 117.077 17.8858C117.885 16.8507 116.78 15.7836 115.945 15.1794C114.526 14.1527 113.081 13.1446 111.558 12.2627C108.684 10.5981 105.336 9.37622 101.919 9.71788C100.607 9.84916 99.167 10.1622 98.1724 11.0492C97.1089 11.9984 97.1866 13.3129 97.6442 14.5331C98.5717 17.0072 100.67 18.9007 103.112 20.0435C105.956 21.3764 109.138 21.6525 112.263 21.3529C114.129 21.1728 115.969 20.8177 117.793 20.4053C119.169 20.0939 120.815 19.8987 121.976 19.0589C122.842 18.4328 123.184 17.3943 122.515 16.5023C121.799 15.548 120.278 15.1121 119.158 14.7772C116.515 13.9861 113.66 13.907 110.954 14.4372C108.248 14.9673 105.682 16.1472 103.598 17.8774C101.513 19.6075 99.6511 22.0867 100.165 24.8284C100.713 27.7451 103.532 28.7449 106.331 28.2231C109.33 27.666 112.302 26.1328 114.761 24.4497C116.054 23.5644 117.27 22.5765 118.379 21.4858C119.388 20.4945 120.427 19.3736 120.589 17.943C120.907 15.1424 118.015 13.116 115.892 11.714C111.035 8.50776 104.078 5.69032 98.1971 8.04324C96.9163 8.55489 96.2274 9.49067 96.4022 10.8371C96.5771 12.1836 97.093 13.5586 97.6937 14.8024C98.902 17.3102 100.835 19.5318 103.31 20.986C108.129 23.8202 115.086 23.2783 118.552 18.7408C120.079 16.7413 120.798 14.1544 120.384 11.7039C119.888 8.76864 117.598 6.50829 115.282 4.68554C110.673 1.05854 103.631 -1.16983 98.3296 2.57161C93.028 6.31306 92.9273 13.2893 95.0879 18.6734C96.1408 21.2973 97.5912 24.0744 100.102 25.6935C102.612 27.3126 106.046 27.1746 108.855 26.1647C113.971 24.3252 118.222 19.6715 118.174 14.2807C118.13 9.33246 114.542 4.47179 109.154 3.95341C106.719 3.71946 104.158 4.38427 102.218 5.8115C99.9143 7.50634 98.9338 10.1201 98.8879 12.8366C98.8349 16.0159 99.7606 19.2777 101.04 22.1877C102.181 24.7863 103.748 27.9168 106.341 29.477C108.988 31.0692 112.04 29.9483 114.254 28.208C116.598 26.365 118.399 23.8118 119.308 21.0516C121.013 15.8796 119.012 9.62363 113.726 7.09063C108.309 4.49703 100.914 6.67323 97.9587 11.7123C96.5294 14.1494 96.2291 17.2159 97.3209 19.8247C98.2696 22.0901 100.222 23.7664 102.564 24.6836C107.921 26.7807 114.139 25.1111 118.528 21.8039C119.69 20.9287 121.013 19.8785 121.359 18.4361C121.681 17.0914 121.077 15.7214 120.271 14.6408C118.543 12.3199 115.892 10.5056 113.079 9.57482C107.804 7.83117 101.202 9.89797 99.2872 15.2249C97.5859 19.961 101.57 25.7019 107.027 25.1465C109.758 24.8688 112.694 23.2194 113.655 20.6595C114.664 17.9733 112.738 15.5581 110.526 14.0888C108.027 12.4293 104.785 11.2713 101.72 11.2057C99.3349 11.1552 96.6142 11.9412 95.7062 14.2655C94.7981 16.5898 96.2062 19.143 98.2448 20.3834C100.914 22.0076 104.425 21.5935 107.299 20.7655C110.346 19.8886 113.383 18.3772 115.683 16.2583C117.642 14.454 119.019 11.6433 117.132 9.32237C115.12 6.84827 111.503 7.01321 108.7 7.96582C105.896 8.91843 103.209 10.7277 101.462 13.1059C99.8666 15.2804 99.1865 18.214 100.78 20.5702C102.518 23.1403 105.675 22.8659 108.452 22.3509C111.23 21.8359 114.328 20.5955 115.53 17.8403C116.731 15.0852 114.994 12.6885 112.717 10.9684C111.631 10.1471 110.302 9.46879 108.873 9.62868C107.594 9.77174 106.541 10.5459 105.85 11.5541C104.101 14.109 105.147 17.6367 106.165 20.2723C106.589 21.3697 107.195 22.4435 108.249 23.0965C109.431 23.8287 111.011 23.8287 112.297 23.354C114.597 22.5074 116.328 20.0603 115.715 17.6855C115.189 15.6406 112.828 14.2167 110.666 14.5146C107.801 14.9101 106.979 17.9295 106.638 20.2437C106.253 22.8457 106.666 26.2119 109.68 27.2368C112.219 28.1003 114.546 25.9981 114.911 23.6923C115.365 20.8261 113.086 18.2594 110.883 16.6134C108.68 14.9673 105.642 13.6495 102.729 13.8919C101.538 13.9912 100.329 14.4389 99.7889 15.5261C99.2483 16.6134 99.4744 17.9009 99.9496 18.9377C100.964 21.1526 103.497 22.637 106.032 22.3728C106.703 22.3021 106.711 21.2923 106.032 21.363L106.02 21.3697Z" fill="black"/>
</svg>
