<svg width="32" height="32" viewBox="0 0 32 32" fill="none" xmlns="http://www.w3.org/2000/svg">
<path d="M22.4521 9.33301C22.5842 9.33075 22.8801 9.36403 23.0713 9.52246C23.2325 9.65621 23.2766 9.83711 23.2979 9.96387C23.3191 10.0909 23.3462 10.3799 23.3252 10.6055C23.0849 13.1826 22.0453 19.4354 21.5166 22.3213C21.2929 23.5424 20.8523 23.9521 20.4258 23.9922C19.499 24.0792 18.7951 23.3664 17.8975 22.7656C16.4927 21.8255 15.6995 21.2397 14.3359 20.3223C12.7601 19.262 13.7816 18.6799 14.6797 17.7275C14.9153 17.4778 18.9954 13.6881 19.0771 13.3418C19.087 13.2988 19.0961 13.1384 19.0029 13.0537C18.9097 12.9691 18.7722 12.9975 18.6729 13.0205C18.532 13.0532 16.2878 14.5682 11.9404 17.5645C11.3035 18.011 10.7259 18.2282 10.209 18.2168C9.63906 18.2041 8.54328 17.8876 7.72852 17.6172C6.72901 17.2855 5.93479 17.1102 6.00391 16.5469C6.03993 16.2535 6.43513 15.9532 7.19043 15.6465C11.8433 13.5767 14.9466 12.212 16.499 11.5527C20.9302 9.67093 21.8518 9.34407 22.4521 9.33301Z" fill="black"/>
</svg>
