<svg width="42" height="42" viewBox="0 0 42 42" fill="none" xmlns="http://www.w3.org/2000/svg">
<path d="M20.9486 0.109619C9.64057 0.109619 0.470215 5.21183 0.470215 11.5058C0.470215 14.2059 2.16177 16.6825 4.98104 18.6377V4.67802H36.879V9.21539H41.0181C39.1159 4.02007 30.8563 0.109619 20.9486 0.109619Z" fill="#090909"/>
<path d="M36.8721 22.5857V36.6385H4.9741V32.0329H0.878418C2.78065 37.2344 11.0402 41.1448 20.9479 41.1448C32.2559 41.1448 41.4263 36.0426 41.4263 29.7487C41.4263 27.0362 39.7223 24.5471 36.8721 22.5857Z" fill="#090909"/>
<path d="M20.9487 18.3462C16.3387 18.3462 12.0819 19.1966 8.66162 20.6242C12.0819 22.058 16.3387 22.9022 20.9487 22.9022C25.5586 22.9022 29.8154 22.0518 33.2357 20.6242C29.8154 19.1904 25.5586 18.3462 20.9487 18.3462Z" fill="#090909"/>
</svg>
